{"title":"Maigret et Les Caves du Majestic (1993) {DVB}","uid":5616885,"size":729527106,"categoryP":"video","categoryS":"tv_shows","magnet":"?xt=urn:btih:ebdd8c7ae9711f72afbd6c0b07eedb1fb66b93cc&amp;dn=Maigret+et+Les+Caves+du+Majestic+%281993%29+%7BDVB%7D&amp;tr=udp%3A%2F%2Ftracker.openbittorrent.com%3A80&amp;tr=udp%3A%2F%2Fopen.demonii.com%3A1337&amp;tr=udp%3A%2F%2Ftracker.coppersurfer.tk%3A6969&amp;tr=udp%3A%2F%2Fexodus.desync.com%3A6969","seeders":1,"leechers":0,"uploader":"nac30","files":2,"time":1276100370,"description":"Maigret et Les Caves du Majestic\n\navec Bruno Cremer\n\n-----------------\n\nGeneral\nComplete name                    : Maigret.S02E03.Maigret.et.Les.Caves.du.Majestic.1993.avi\nFormat                           : AVI\nFormat/Info                      : Audio Video Interleave\nFile size                        : 696 MiB\nDuration                         : 1h 35mn\nOverall bit rate                 : 1 015 Kbps\nMovie name                       : Maigret et Les Caves du Majestic\nMovie name/Country               : France / Belgique / Suisse\nOriginal source form/Distributed : DVB\nGenre                            : Drama / Mystery\nLaw rating                       : Unrated\nRecorded date                    : 1993-01-22\nWriting application              : VirtualDub build 32817/releaseVirtualDubMod 1.5.10.2 Fr | www.trad-fr.com ||  (build 2540/release)\nOriginal source form             : Digital Video Broadcasting\nOriginal source form/Name        : Teleplay\nIMIU                             : http://www.imdb.com/title/tt0104793/\n\nVideo\nID                               : 0\nFormat                           : MPEG-4 Visual\nFormat profile                   : Advanced Simple@L5\nFormat settings, BVOP            : Yes\nFormat settings, QPel            : No\nFormat settings, GMC             : No warppoints\nFormat settings, Matrix          : Default (H.263)\nMuxing mode                      : Packed bitstream\nCodec ID                         : XVID\nCodec ID/Hint                    : XviD\nDuration                         : 1h 35mn\nBit rate                         : 910 Kbps\nWidth                            : 480 pixels\nHeight                           : 304 pixels\nDisplay aspect ratio             : 1.579\nFrame rate                       : 25.000 fps\nResolution                       : 8 bits\nColorimetry                      : 4:2:0\nScan type                        : Progressive\nBits/(Pixel*Frame)               : 0.249\nStream size                      : 624 MiB (90%)\nWriting library                  : XviD 1.1.2 (UTC 2006-11-01)\n\nAudio\nID                               : 1\nFormat                           : AC-3\nFormat/Info                      : Audio Coding 3\nCodec ID                         : 2000\nDuration                         : 1h 35mn\nBit rate mode                    : Constant\nBit rate                         : 96.0 Kbps\nChannel(s)                       : 2 channels\nChannel positions                : L R\nSampling rate                    : 32.0 KHz\nStream size                      : 65.8 MiB (9%)\nAlignment                        : Aligned on interleaves\nInterleave, duration             : 48 ms (1.20 video frame)\nInterleave, preload duration     : 528 ms\nLanguage                         : French\n\n-----------------\n\nHTML file contains more detailed information","torrent":{"xt":"urn:btih:ebdd8c7ae9711f72afbd6c0b07eedb1fb66b93cc","amp;dn":"Maigret+et+Les+Caves+du+Majestic+%281993%29+%7BDVB%7D","amp;tr":["udp%3A%2F%2Ftracker.openbittorrent.com%3A80","udp%3A%2F%2Fopen.demonii.com%3A1337","udp%3A%2F%2Ftracker.coppersurfer.tk%3A6969","udp%3A%2F%2Fexodus.desync.com%3A6969"],"infoHash":"ebdd8c7ae9711f72afbd6c0b07eedb1fb66b93cc","infoHashBuffer":{"type":"Buffer","data":[235,221,140,122,233,113,31,114,175,189,108,11,7,238,219,31,182,107,147,204]},"announce":[],"urlList":[]}}